<svg width="164" height="29" viewBox="0 0 164 29" fill="none" xmlns="http://www.w3.org/2000/svg">
<path d="M11.7799 7.13C14.4999 7.13 16.4999 7.68 17.7799 8.78C19.0799 9.88 19.7299 11.32 19.7299 13.1C19.7299 13.7 19.6499 14.37 19.4899 15.11C19.1099 16.75 18.3999 18.19 17.3599 19.43C16.3199 20.65 15.0399 21.6 13.5199 22.28C12.0199 22.94 10.3899 23.27 8.62992 23.27C5.84992 23.27 3.78992 22.72 2.44992 21.62C1.12992 20.5 0.469922 19.02 0.469922 17.18C0.469922 16.56 0.549922 15.87 0.709922 15.11C1.08992 13.55 1.80992 12.17 2.86992 10.97C3.94992 9.75 5.25992 8.81 6.79992 8.15C8.35992 7.47 10.0199 7.13 11.7799 7.13ZM11.6899 9.8C11.2699 9.8 10.8199 10.18 10.3399 10.94C9.87992 11.68 9.32992 13.09 8.68992 15.17C8.04992 17.25 7.72992 18.71 7.72992 19.55C7.72992 19.99 7.79992 20.29 7.93992 20.45C8.07992 20.59 8.26992 20.66 8.50992 20.66C8.92992 20.7 9.35992 20.34 9.79992 19.58C10.2599 18.82 10.8299 17.34 11.5099 15.14C12.1299 13.2 12.4399 11.79 12.4399 10.91C12.4399 10.49 12.3699 10.2 12.2299 10.04C12.1099 9.88 11.9299 9.8 11.6899 9.8ZM37.6615 18.86C37.6215 18.94 37.6015 19.06 37.6015 19.22C37.6015 19.36 37.6315 19.47 37.6915 19.55C37.7715 19.63 37.8715 19.67 37.9915 19.67C38.2315 19.67 38.4315 19.57 38.5915 19.37C38.7715 19.15 38.8915 19.04 38.9515 19.04C39.0515 19.04 39.1315 19.11 39.1915 19.25C39.2515 19.37 39.2815 19.52 39.2815 19.7C39.3015 20.28 39.1115 20.85 38.7115 21.41C38.3115 21.95 37.7215 22.4 36.9415 22.76C36.1815 23.1 35.2615 23.27 34.1815 23.27C32.8615 23.27 31.8115 22.97 31.0315 22.37C30.2515 21.75 29.8515 20.93 29.8315 19.91C29.8315 19.17 30.0115 18.34 30.3715 17.42L32.0215 13.1C32.1215 12.84 32.1715 12.63 32.1715 12.47C32.1715 12.21 32.0815 12.01 31.9015 11.87C31.7415 11.71 31.5415 11.63 31.3015 11.63C30.9215 11.63 30.5315 11.81 30.1315 12.17C29.7515 12.51 29.4415 13.07 29.2015 13.85V13.79L27.3115 19.88C27.2515 20.12 27.2215 20.33 27.2215 20.51C27.2215 20.77 27.2715 20.98 27.3715 21.14C27.4715 21.28 27.6115 21.42 27.7915 21.56C27.9315 21.7 28.0315 21.82 28.0915 21.92C28.1515 22 28.1615 22.11 28.1215 22.25C28.0215 22.51 27.8215 22.7 27.5215 22.82C27.2215 22.94 26.7615 23 26.1415 23H19.3015C18.7815 23 18.4015 22.92 18.1615 22.76C17.9215 22.58 17.8415 22.35 17.9215 22.07C18.0015 21.83 18.2115 21.62 18.5515 21.44C18.8515 21.28 19.1015 21.09 19.3015 20.87C19.5015 20.65 19.6715 20.3 19.8115 19.82L24.3715 4.85C24.4315 4.67 24.4615 4.52 24.4615 4.4C24.4615 4.18 24.4015 4 24.2815 3.86C24.1815 3.72 24.0415 3.58 23.8615 3.44C23.6615 3.28 23.5115 3.14 23.4115 3.02C23.3315 2.9 23.3215 2.74 23.3815 2.54C23.5015 2.08 24.1315 1.68 25.2715 1.34C26.4115 0.999999 27.6015 0.829999 28.8415 0.829999C30.0015 0.829999 30.8515 1.05 31.3915 1.49C31.9515 1.93 32.2315 2.53 32.2315 3.29C32.2315 3.73 32.1615 4.16 32.0215 4.58L30.4015 9.86C31.1815 8.84 32.0015 8.13 32.8615 7.73C33.7415 7.33 34.6915 7.13 35.7115 7.13C36.9315 7.13 37.9115 7.5 38.6515 8.24C39.4115 8.98 39.7915 9.94 39.7915 11.12C39.7915 11.74 39.6915 12.35 39.4915 12.95L37.6615 18.86ZM69.1003 18.86C69.0603 18.94 69.0403 19.06 69.0403 19.22C69.0403 19.36 69.0703 19.47 69.1303 19.55C69.2103 19.63 69.3103 19.67 69.4303 19.67C69.6703 19.67 69.8703 19.57 70.0303 19.37C70.2103 19.15 70.3303 19.04 70.3903 19.04C70.4903 19.04 70.5703 19.11 70.6303 19.25C70.6903 19.37 70.7203 19.52 70.7203 19.7C70.7403 20.28 70.5503 20.85 70.1503 21.41C69.7503 21.95 69.1603 22.4 68.3803 22.76C67.6203 23.1 66.7003 23.27 65.6203 23.27C64.3003 23.27 63.2503 22.97 62.4703 22.37C61.6903 21.75 61.2903 20.93 61.2703 19.91C61.2703 19.17 61.4503 18.34 61.8103 17.42L63.4603 13.1C63.5603 12.84 63.6103 12.63 63.6103 12.47C63.6103 12.21 63.5203 12.01 63.3403 11.87C63.1803 11.71 62.9803 11.63 62.7403 11.63C62.4003 11.63 62.0503 11.78 61.6903 12.08C61.3303 12.38 61.0103 12.85 60.7303 13.49L59.0803 18.86C59.0403 18.94 59.0203 19.06 59.0203 19.22C59.0203 19.36 59.0503 19.47 59.1103 19.55C59.1903 19.63 59.2903 19.67 59.4103 19.67C59.6503 19.67 59.8503 19.57 60.0103 19.37C60.1903 19.15 60.3103 19.04 60.3703 19.04C60.4703 19.04 60.5503 19.11 60.6103 19.25C60.6703 19.37 60.7003 19.52 60.7003 19.7C60.7203 20.28 60.5303 20.85 60.1303 21.41C59.7303 21.95 59.1403 22.4 58.3603 22.76C57.6003 23.1 56.6803 23.27 55.6003 23.27C54.2803 23.27 53.2303 22.97 52.4503 22.37C51.6703 21.75 51.2703 20.93 51.2503 19.91C51.2503 19.17 51.4303 18.34 51.7903 17.42L53.4403 13.1C53.5403 12.84 53.5903 12.63 53.5903 12.47C53.5903 12.21 53.5003 12.01 53.3203 11.87C53.1603 11.71 52.9603 11.63 52.7203 11.63C52.3803 11.63 52.0303 11.78 51.6703 12.08C51.3103 12.36 51.0103 12.82 50.7703 13.46L48.7903 19.88C48.7103 20.1 48.6703 20.31 48.6703 20.51C48.6703 20.75 48.7203 20.95 48.8203 21.11C48.9203 21.25 49.0603 21.4 49.2403 21.56C49.3803 21.68 49.4803 21.79 49.5403 21.89C49.6003 21.99 49.6103 22.11 49.5703 22.25C49.4903 22.51 49.3003 22.7 49.0003 22.82C48.7003 22.94 48.2303 23 47.5903 23H40.7503C40.2303 23 39.8603 22.92 39.6403 22.76C39.4003 22.58 39.3103 22.35 39.3703 22.07C39.4503 21.83 39.6603 21.62 40.0003 21.44C40.3003 21.28 40.5503 21.09 40.7503 20.87C40.9503 20.65 41.1203 20.3 41.2603 19.82L43.9303 11.15C43.9703 11.05 43.9903 10.91 43.9903 10.73C43.9903 10.51 43.9403 10.34 43.8403 10.22C43.7603 10.1 43.6203 9.95 43.4203 9.77C43.2203 9.61 43.0803 9.47 43.0003 9.35C42.9203 9.23 42.9103 9.07 42.9703 8.87C43.0903 8.41 43.7203 8.01 44.8603 7.67C46.0003 7.31 47.1903 7.13 48.4303 7.13C49.4103 7.13 50.1803 7.4 50.7403 7.94C51.3203 8.48 51.6003 9.22 51.5803 10.16C52.4003 9.02 53.2603 8.23 54.1603 7.79C55.0803 7.35 56.0703 7.13 57.1303 7.13C58.2903 7.13 59.2303 7.47 59.9503 8.15C60.6903 8.81 61.1003 9.68 61.1803 10.76C62.0403 9.4 62.9603 8.46 63.9403 7.94C64.9203 7.4 65.9903 7.13 67.1503 7.13C68.3703 7.13 69.3503 7.5 70.0903 8.24C70.8503 8.98 71.2303 9.94 71.2303 11.12C71.2303 11.74 71.1303 12.35 70.9303 12.95L69.1003 18.86ZM87.6129 7.13C88.4929 7.13 89.1929 7.49 89.7129 8.21C90.2529 8.91 90.5229 9.87 90.5229 11.09C90.5229 12.15 90.3329 13.29 89.9529 14.51C89.2129 16.97 88.0229 19.29 86.3829 21.47C84.7629 23.65 82.8929 25.4 80.7729 26.72C78.6729 28.04 76.5729 28.7 74.4729 28.7C73.4329 28.7 72.5329 28.52 71.7729 28.16C71.0329 27.8 70.4729 27.32 70.0929 26.72C69.6929 26.12 69.4929 25.48 69.4929 24.8C69.4929 24.5 69.5429 24.17 69.6429 23.81C69.8229 23.25 70.1229 22.82 70.5429 22.52C70.9629 22.22 71.4629 22.07 72.0429 22.07C72.9629 22.07 73.7129 22.38 74.2929 23C74.8929 23.64 75.2729 24.51 75.4329 25.61C76.7129 25.55 77.8929 25 78.9729 23.96C77.9529 23.78 77.1929 23.44 76.6929 22.94C76.2129 22.42 75.8829 21.62 75.7029 20.54L74.5029 13.19C74.4429 12.81 74.3529 12.55 74.2329 12.41C74.1329 12.25 73.9929 12.17 73.8129 12.17C73.6729 12.17 73.5029 12.24 73.3029 12.38C73.1229 12.52 72.9929 12.59 72.9129 12.59C72.7529 12.59 72.6729 12.42 72.6729 12.08C72.6729 11.8 72.7229 11.5 72.8229 11.18C73.1829 10.04 73.8529 9.08 74.8329 8.3C75.8129 7.5 76.9529 7.1 78.2529 7.1C79.5329 7.1 80.4729 7.48 81.0729 8.24C81.6929 9 82.0929 10.17 82.2729 11.75L83.1729 18.35C83.2329 18.85 83.4129 19.1 83.7129 19.1C84.0729 19.1 84.4929 18.78 84.9729 18.14C85.4529 17.48 85.9229 16.55 86.3829 15.35C85.7829 14.81 85.3229 14.19 85.0029 13.49C84.6829 12.79 84.5229 12.04 84.5229 11.24C84.5229 10.62 84.6029 10.06 84.7629 9.56C85.0029 8.76 85.3729 8.16 85.8729 7.76C86.3929 7.34 86.9729 7.13 87.6129 7.13ZM102.556 0.829999C104.696 0.829999 106.296 1.16 107.356 1.82C108.436 2.46 108.976 3.25 108.976 4.19C108.976 4.95 108.656 5.54 108.016 5.96C107.396 6.36 106.576 6.56 105.556 6.56C104.616 6.56 103.886 6.33 103.366 5.87C102.846 5.41 102.586 4.84 102.586 4.16C102.586 3.74 102.716 3.3 102.976 2.84C102.376 2.84 101.876 2.99 101.476 3.29C101.076 3.57 100.766 4.06 100.546 4.76C100.426 5.2 100.366 5.61 100.366 5.99C100.366 6.47 100.446 6.85 100.606 7.13C100.786 7.39 101.036 7.52 101.356 7.52H103.126C104.166 7.52 104.686 7.84 104.686 8.48C104.686 8.56 104.666 8.68 104.626 8.84C104.506 9.28 104.256 9.61 103.876 9.83C103.516 10.05 102.966 10.16 102.226 10.16H101.326L98.3564 19.88C98.2964 20.12 98.2664 20.33 98.2664 20.51C98.2664 20.77 98.3164 20.98 98.4164 21.14C98.5164 21.28 98.6564 21.42 98.8364 21.56C98.9764 21.7 99.0764 21.82 99.1364 21.92C99.1964 22 99.2064 22.11 99.1664 22.25C99.0664 22.51 98.8664 22.7 98.5664 22.82C98.2664 22.94 97.8064 23 97.1864 23H90.3464C89.8264 23 89.4464 22.92 89.2064 22.76C88.9664 22.58 88.8864 22.35 88.9664 22.07C89.0464 21.83 89.2564 21.62 89.5964 21.44C89.8964 21.28 90.1464 21.09 90.3464 20.87C90.5464 20.65 90.7164 20.3 90.8564 19.82L93.1964 12.14C93.2964 11.84 93.3464 11.53 93.3464 11.21C93.3464 10.81 93.2564 10.5 93.0764 10.28C92.9164 10.04 92.6664 9.78 92.3264 9.5C92.1064 9.32 91.9364 9.17 91.8164 9.05C91.7164 8.91 91.6664 8.75 91.6664 8.57C91.6464 8.19 91.7764 7.92 92.0564 7.76C92.3564 7.6 92.9164 7.52 93.7364 7.52H94.4864C94.3464 7.02 94.2764 6.52 94.2764 6.02C94.2764 5.52 94.3664 5 94.5464 4.46C94.9264 3.44 95.7364 2.58 96.9764 1.88C98.2364 1.18 100.096 0.829999 102.556 0.829999ZM114.407 7.13C117.127 7.13 119.127 7.68 120.407 8.78C121.707 9.88 122.357 11.32 122.357 13.1C122.357 13.7 122.277 14.37 122.117 15.11C121.737 16.75 121.027 18.19 119.987 19.43C118.947 20.65 117.667 21.6 116.147 22.28C114.647 22.94 113.017 23.27 111.257 23.27C108.477 23.27 106.417 22.72 105.077 21.62C103.757 20.5 103.097 19.02 103.097 17.18C103.097 16.56 103.177 15.87 103.337 15.11C103.717 13.55 104.437 12.17 105.497 10.97C106.577 9.75 107.887 8.81 109.427 8.15C110.987 7.47 112.647 7.13 114.407 7.13ZM114.317 9.8C113.897 9.8 113.447 10.18 112.967 10.94C112.507 11.68 111.957 13.09 111.317 15.17C110.677 17.25 110.357 18.71 110.357 19.55C110.357 19.99 110.427 20.29 110.567 20.45C110.707 20.59 110.897 20.66 111.137 20.66C111.557 20.7 111.987 20.34 112.427 19.58C112.887 18.82 113.457 17.34 114.137 15.14C114.757 13.2 115.067 11.79 115.067 10.91C115.067 10.49 114.997 10.2 114.857 10.04C114.737 9.88 114.557 9.8 114.317 9.8ZM134.094 7.13C136.814 7.13 138.814 7.68 140.094 8.78C141.394 9.88 142.044 11.32 142.044 13.1C142.044 13.7 141.964 14.37 141.804 15.11C141.424 16.75 140.714 18.19 139.674 19.43C138.634 20.65 137.354 21.6 135.834 22.28C134.334 22.94 132.704 23.27 130.944 23.27C128.164 23.27 126.104 22.72 124.764 21.62C123.444 20.5 122.784 19.02 122.784 17.18C122.784 16.56 122.864 15.87 123.024 15.11C123.404 13.55 124.124 12.17 125.184 10.97C126.264 9.75 127.574 8.81 129.114 8.15C130.674 7.47 132.334 7.13 134.094 7.13ZM134.004 9.8C133.584 9.8 133.134 10.18 132.654 10.94C132.194 11.68 131.644 13.09 131.004 15.17C130.364 17.25 130.044 18.71 130.044 19.55C130.044 19.99 130.114 20.29 130.254 20.45C130.394 20.59 130.584 20.66 130.824 20.66C131.244 20.7 131.674 20.34 132.114 19.58C132.574 18.82 133.144 17.34 133.824 15.14C134.444 13.2 134.754 11.79 134.754 10.91C134.754 10.49 134.684 10.2 134.544 10.04C134.424 9.88 134.244 9.8 134.004 9.8ZM158.942 18.68C158.902 18.84 158.882 18.95 158.882 19.01C158.882 19.15 158.922 19.26 159.002 19.34C159.082 19.42 159.182 19.46 159.302 19.46C159.542 19.46 159.742 19.36 159.902 19.16C160.082 18.94 160.202 18.83 160.262 18.83C160.362 18.83 160.442 18.9 160.502 19.04C160.562 19.18 160.592 19.34 160.592 19.52C160.612 20.06 160.402 20.61 159.962 21.17C159.542 21.73 158.972 22.19 158.252 22.55C157.532 22.91 156.752 23.09 155.912 23.09C154.912 23.09 154.042 22.9 153.302 22.52C152.562 22.14 152.052 21.64 151.772 21.02C151.232 21.72 150.612 22.24 149.912 22.58C149.212 22.92 148.472 23.09 147.692 23.09C146.772 23.09 145.912 22.86 145.112 22.4C144.332 21.94 143.702 21.29 143.222 20.45C142.762 19.59 142.532 18.62 142.532 17.54C142.532 15.72 142.872 14.01 143.552 12.41C144.252 10.79 145.222 9.49 146.462 8.51C147.702 7.51 149.112 7.01 150.692 7.01C151.552 7.01 152.282 7.11 152.882 7.31C153.502 7.51 154.062 7.81 154.562 8.21L155.582 4.85C155.642 4.67 155.672 4.52 155.672 4.4C155.672 4.18 155.612 4 155.492 3.86C155.392 3.72 155.252 3.58 155.072 3.44C154.872 3.28 154.722 3.14 154.622 3.02C154.542 2.9 154.532 2.74 154.592 2.54C154.712 2.08 155.342 1.68 156.482 1.34C157.622 0.999999 158.812 0.829999 160.052 0.829999C161.212 0.829999 162.062 1.05 162.602 1.49C163.162 1.93 163.442 2.53 163.442 3.29C163.442 3.73 163.372 4.16 163.232 4.58L158.942 18.68ZM153.932 10.25C153.612 9.97 153.262 9.83 152.882 9.83C152.302 9.83 151.732 10.26 151.172 11.12C150.612 11.98 150.162 13.02 149.822 14.24C149.482 15.46 149.322 16.56 149.342 17.54C149.342 18.64 149.702 19.19 150.422 19.19C150.682 19.19 150.902 19.09 151.082 18.89C151.262 18.67 151.432 18.32 151.592 17.84L153.932 10.25Z" fill="#101010"/>
</svg>
